<svg width="25" height="24" viewBox="0 0 25 24" fill="none" xmlns="http://www.w3.org/2000/svg">
<path d="M12.35 5.625C11.0889 5.62476 9.85601 5.99852 8.8073 6.699C7.75859 7.39947 6.94115 8.39521 6.45837 9.56028C5.97558 10.7254 5.84914 12.0074 6.09502 13.2444C6.34091 14.4813 6.94808 15.6175 7.83975 16.5094C8.73142 17.4012 9.86753 18.0086 11.1044 18.2548C12.3413 18.5009 13.6234 18.3747 14.7886 17.8922C15.9537 17.4096 16.9496 16.5924 17.6503 15.5438C18.351 14.4952 18.725 13.2624 18.725 12.0013C18.7233 10.3109 18.0511 8.69032 16.856 7.49495C15.6609 6.29958 14.0404 5.62708 12.35 5.625Z" fill="#21E786"/>
<path d="M22.4853 10.877H20.9865C20.6881 10.877 20.4019 10.9955 20.1909 11.2065C19.9799 11.4175 19.8613 11.7037 19.8613 12.0021C19.8613 12.3006 19.9799 12.5868 20.1909 12.7978C20.4019 13.0088 20.6881 13.1273 20.9865 13.1273H22.4853C22.7837 13.1273 23.0699 13.0088 23.2809 12.7978C23.4919 12.5868 23.6104 12.3006 23.6104 12.0021C23.6104 11.7037 23.4919 11.4175 23.2809 11.2065C23.0699 10.9955 22.7837 10.877 22.4853 10.877Z" fill="#21E786"/>
<path d="M12.3491 19.5C12.0509 19.5004 11.765 19.6192 11.5542 19.8301C11.3434 20.041 11.2249 20.327 11.2246 20.6252V22.1254C11.2246 22.4236 11.3431 22.7095 11.5539 22.9204C11.7648 23.1313 12.0508 23.2497 12.349 23.2497C12.6472 23.2497 12.9332 23.1313 13.144 22.9204C13.3549 22.7095 13.4733 22.4236 13.4733 22.1254V20.6252C13.4731 20.327 13.3546 20.0411 13.1439 19.8301C12.9331 19.6192 12.6473 19.5005 12.3491 19.5Z" fill="#21E786"/>
<path d="M4.85657 12.0021C4.85631 11.7039 4.73778 11.418 4.52699 11.2071C4.31619 10.9961 4.03033 10.8774 3.73212 10.877H2.23359C1.93517 10.877 1.64897 10.9955 1.43796 11.2065C1.22694 11.4175 1.1084 11.7037 1.1084 12.0021C1.1084 12.3006 1.22694 12.5868 1.43796 12.7978C1.64897 13.0088 1.93517 13.1273 2.23359 13.1273H3.73212C4.03033 13.1269 4.31619 13.0082 4.52699 12.7972C4.73779 12.5863 4.85631 12.3003 4.85657 12.0021Z" fill="#21E786"/>
<path d="M12.3499 4.49972C12.6481 4.49927 12.9339 4.38056 13.1447 4.16963C13.3555 3.95869 13.474 3.67276 13.4743 3.37455V1.87436C13.4743 1.57616 13.3558 1.29018 13.145 1.07932C12.9341 0.868459 12.6481 0.75 12.3499 0.75C12.0517 0.75 11.7658 0.868459 11.5549 1.07932C11.344 1.29018 11.2256 1.57616 11.2256 1.87436V3.37455C11.2258 3.67274 11.3443 3.95867 11.5551 4.16961C11.7658 4.38054 12.0517 4.49926 12.3499 4.49972Z" fill="#21E786"/>
<path d="M19.2452 6.69659L20.306 5.63581C20.4107 5.53148 20.4938 5.40751 20.5506 5.27101C20.6074 5.13451 20.6367 4.98815 20.6369 4.84031C20.637 4.69248 20.608 4.54606 20.5515 4.40945C20.495 4.27283 20.4121 4.1487 20.3075 4.04417C20.203 3.93963 20.0789 3.85673 19.9423 3.80022C19.8057 3.74371 19.6592 3.7147 19.5114 3.71484C19.3636 3.71499 19.2172 3.74429 19.0807 3.80106C18.9442 3.85784 18.8202 3.94098 18.7159 4.04572L17.6551 5.10652C17.5504 5.21086 17.4672 5.33482 17.4104 5.47132C17.3537 5.60782 17.3244 5.75418 17.3242 5.90202C17.3241 6.04986 17.3531 6.19628 17.4096 6.33289C17.4661 6.4695 17.549 6.59363 17.6535 6.69817C17.7581 6.8027 17.8822 6.8856 18.0188 6.94211C18.1554 6.99861 18.3019 7.02762 18.4497 7.02748C18.5975 7.02733 18.7439 6.99803 18.8804 6.94125C19.0169 6.88447 19.1409 6.80133 19.2452 6.69659Z" fill="#21E786"/>
<path d="M19.245 17.3073C19.1407 17.2026 19.0167 17.1195 18.8802 17.0627C18.7437 17.006 18.5974 16.9767 18.4496 16.9766C18.3017 16.9764 18.1554 17.0055 18.0188 17.062C17.8822 17.1185 17.7581 17.2014 17.6535 17.3059C17.549 17.4104 17.4661 17.5345 17.4096 17.6711C17.3531 17.8077 17.3241 17.9541 17.3242 18.1019C17.3243 18.2497 17.3536 18.3961 17.4104 18.5326C17.4671 18.6691 17.5502 18.793 17.6549 18.8974L18.7157 19.9581C18.8201 20.0628 18.944 20.146 19.0805 20.2027C19.217 20.2594 19.3634 20.2887 19.5112 20.2889C19.659 20.289 19.8054 20.26 19.942 20.2035C20.0786 20.1469 20.2027 20.0641 20.3072 19.9595C20.4117 19.855 20.4946 19.7309 20.5511 19.5943C20.6076 19.4577 20.6367 19.3113 20.6365 19.1635C20.6364 19.0157 20.6071 18.8693 20.5504 18.7329C20.4936 18.5964 20.4105 18.4724 20.3058 18.3681L19.245 17.3073Z" fill="#21E786"/>
<path d="M5.45432 17.3073L4.39354 18.3681C4.28876 18.4724 4.20559 18.5964 4.14879 18.7329C4.09198 18.8694 4.06266 19.0158 4.0625 19.1636C4.06234 19.3115 4.09134 19.4579 4.14785 19.5945C4.20436 19.7312 4.28726 19.8553 4.39181 19.9599C4.49636 20.0644 4.62051 20.1473 4.75714 20.2038C4.89377 20.2603 5.04021 20.2893 5.18807 20.2892C5.33592 20.289 5.48229 20.2597 5.6188 20.2029C5.75531 20.1461 5.87928 20.0629 5.9836 19.9581L7.0444 18.8974C7.14911 18.793 7.23221 18.6691 7.28896 18.5326C7.34571 18.3961 7.37499 18.2497 7.37512 18.1019C7.37525 17.9541 7.34623 17.8077 7.28972 17.6711C7.23321 17.5345 7.15032 17.4104 7.0458 17.3059C6.94127 17.2014 6.81716 17.1185 6.68057 17.062C6.54398 17.0055 6.39759 16.9764 6.24977 16.9766C6.10195 16.9767 5.95561 17.006 5.81911 17.0627C5.68262 17.1195 5.55866 17.2026 5.45432 17.3073Z" fill="#21E786"/>
<path d="M5.45483 6.69532C5.55921 6.79987 5.68316 6.88283 5.81962 6.93945C5.95607 6.99607 6.10234 7.02525 6.25008 7.02531C6.39781 7.02537 6.54411 6.99632 6.68061 6.93981C6.81711 6.88331 6.94113 6.80045 7.0456 6.69599C7.15006 6.59153 7.23291 6.4675 7.28942 6.331C7.34592 6.1945 7.37498 6.0482 7.37491 5.90047C7.37485 5.75274 7.34567 5.60646 7.28905 5.47001C7.23243 5.33356 7.14947 5.2096 7.04492 5.10523L5.98412 4.04443C5.87982 3.93954 5.75585 3.85627 5.61931 3.79938C5.48277 3.74249 5.33634 3.7131 5.18843 3.71289C5.04051 3.71269 4.89401 3.74167 4.75731 3.79818C4.62061 3.85469 4.49641 3.93762 4.39181 4.04221C4.28722 4.14681 4.20429 4.27101 4.14778 4.40771C4.09128 4.54441 4.06229 4.69091 4.0625 4.83883C4.06271 4.98675 4.0921 5.13317 4.14899 5.26971C4.20588 5.40625 4.28916 5.53022 4.39404 5.63452L5.45483 6.69532Z" fill="#21E786"/>
</svg>
